#N canvas 414 60 1280 995 12;
#X obj 224 8 route key abs;
#X obj 221 107 tgl 25 0 empty empty empty 0 -6 0 8 #bcbcbc #000000
#000000 0 1;
#X obj 267 107 tgl 25 0 empty empty empty 0 -6 0 8 #bcbcbc #000000
#000000 0 1;
#X obj 314 107 tgl 25 0 empty empty empty 0 -6 0 8 #bcbcbc #000000
#000000 0 1;
#X obj 361 107 tgl 25 0 empty empty empty 0 -6 0 8 #bcbcbc #000000
#000000 0 1;
#X obj 408 107 tgl 25 0 empty empty empty 0 -6 0 8 #bcbcbc #000000
#000000 0 1;
#X obj 455 107 tgl 25 0 empty empty empty 0 -6 0 8 #bcbcbc #000000
#000000 0 1;
#X obj 575 120 tgl 25 0 empty empty empty 0 -6 0 8 #bcbcbc #000000
#000000 0 1;
#X floatatom 105 47 4 0 0 0 X - X-AXIS_1gui, f 4;
#X floatatom 144 47 4 0 0 0 Y - Y-AXIS_1gui, f 4;
#X obj -37 26 route abs_x abs_y;
#X obj -37 82 sel 0 128 255;
#X obj -37 111 bng 15 250 50 0 empty empty empty 17 7 0 10 #fcfcfc
#000000 #000000;
#X obj -10 111 bng 15 250 50 0 empty empty empty 17 7 0 10 #fcfcfc
#000000 #000000;
#X obj 19 111 bng 15 250 50 0 empty empty empty 17 7 0 10 #fcfcfc #000000
#000000;
#X obj 63 83 sel 0 128 255;
#X obj 63 112 bng 15 250 50 0 empty empty empty 17 7 0 10 #fcfcfc #000000
#000000;
#X obj 90 112 bng 15 250 50 0 empty empty empty 17 7 0 10 #fcfcfc #000000
#000000;
#X obj 119 113 bng 15 250 50 0 empty empty empty 17 7 0 10 #fcfcfc
#000000 #000000;
#N canvas 0 0 450 300 hid-init 0;
#X msg 88 111 close;
#X msg 108 172 refresh;
#X msg 103 152 print;
#X msg 96 132 info;
#X obj 85 236 hid 0;
#X msg 79 91 poll 20;
#X obj 72 9 loadbang;
#X msg 208 170 open 0x0079 0x0126;
#X obj 123 47 t b b;
#X obj 85 265 outlet;
#X connect 0 0 4 0;
#X connect 1 0 4 0;
#X connect 2 0 4 0;
#X connect 3 0 4 0;
#X connect 4 0 9 0;
#X connect 5 0 4 0;
#X connect 6 0 8 0;
#X connect 7 0 4 0;
#X connect 8 0 5 0;
#X connect 8 1 7 0;
#X restore 374 21 pd hid-init;
#X obj 221 78 route btn_0 btn_1 btn_2 btn_3 btn_4 btn_5 btn_8 btn_9
, f 54;
#X obj 640 120 tgl 25 0 empty empty empty 0 -6 0 8 #bcbcbc #000000
#000000 0 1;
#X msg 990 436 5 67 144;
#X obj 990 330 tgl 63 0 empty empty empty 17 7 0 10 #fcfcfc #000000
#000000 0 1;
#X obj 990 404 sel 1 0;
#X obj 973 556 unpack f f f;
#X floatatom 1050 578 3 0 0 0 - - -, f 3;
#X floatatom 1076 578 3 0 0 0 - - -, f 3;
#X floatatom 1102 578 3 0 0 0 - - -, f 3;
#X msg 1069 435 5 67 128;
#X msg 221 201 1 \$1;
#X msg 267 201 2 \$1;
#X msg 314 201 3 \$1;
#X msg 361 201 4 \$1;
#X msg 408 201 5 \$1;
#X msg 455 201 6 \$1;
#X obj 228 251 unpack;
#X floatatom 172 274 3 0 0 0 - - -, f 3;
#X floatatom 194 274 3 0 0 0 - - -, f 3;
#X obj 333 331 pack f f f;
#X msg 333 360 \$3 \$1 \$2;
#X obj -3 176 f;
#X msg -3 216 \$1 0;
#X msg -37 216 \$1 1;
#X msg 113 209 \$1 0;
#X msg 60 209 \$1 1;
#X obj 113 159 f;
#X obj 640 151 sel 1;
#X obj 575 151 sel 1;
#X floatatom 623 211 5 0 0 0 - - -, f 5;
#X obj 529 428 route 5 6;
#X obj 549 499 sel 1;
#X obj 589 498 sel 1;
#X obj 323 645 pack f f f;
#X obj 333 485 unpack;
#X obj 389 589 * 16;
#X obj 389 616 + 128;
#X msg 550 529 128;
#X msg 589 527 129;
#X floatatom 555 574 5 0 0 0 - - -, f 5;
#X msg 326 594 64, f 2;
#X obj 224 358 change;
#X obj 265 279 change;
#X obj 224 381 sel 0;
#X msg 265 329 0;
#X obj 265 308 bng 15 250 50 0 empty empty empty 17 7 0 10 #fcfcfc
#000000 #000000;
#X msg 582 180 70;
#X msg -37 140 7;
#X msg 19 140 8;
#X msg 63 136 9;
#X msg 119 136 10;
#X msg 639 186 90;
#X obj 331 392 route 0 70 90;
#X obj 327 556 t b f;
#X obj 340 518 + 0;
#X obj 626 241 t f f;
#X floatatom 408 489 5 0 0 0 - - -, f 5;
#X connect 0 0 20 0;
#X connect 0 1 10 0;
#X connect 1 0 30 0;
#X connect 2 0 31 0;
#X connect 3 0 32 0;
#X connect 4 0 33 0;
#X connect 5 0 34 0;
#X connect 6 0 35 0;
#X connect 7 0 48 0;
#X connect 10 0 8 0;
#X connect 10 0 11 0;
#X connect 10 1 9 0;
#X connect 10 1 15 0;
#X connect 11 0 12 0;
#X connect 11 1 13 0;
#X connect 11 2 14 0;
#X connect 12 0 67 0;
#X connect 13 0 41 0;
#X connect 14 0 68 0;
#X connect 15 0 16 0;
#X connect 15 1 17 0;
#X connect 15 2 18 0;
#X connect 16 0 69 0;
#X connect 17 0 46 0;
#X connect 18 0 70 0;
#X connect 19 0 0 0;
#X connect 20 0 1 0;
#X connect 20 1 2 0;
#X connect 20 2 3 0;
#X connect 20 3 4 0;
#X connect 20 4 5 0;
#X connect 20 5 6 0;
#X connect 20 6 7 0;
#X connect 20 7 21 0;
#X connect 21 0 47 0;
#X connect 22 0 25 0;
#X connect 23 0 24 0;
#X connect 24 0 22 0;
#X connect 24 1 29 0;
#X connect 25 0 26 0;
#X connect 25 1 27 0;
#X connect 25 2 28 0;
#X connect 29 0 25 0;
#X connect 30 0 36 0;
#X connect 31 0 36 0;
#X connect 32 0 36 0;
#X connect 33 0 36 0;
#X connect 34 0 36 0;
#X connect 35 0 36 0;
#X connect 36 0 37 0;
#X connect 36 0 61 0;
#X connect 36 1 38 0;
#X connect 36 1 62 0;
#X connect 39 0 40 0;
#X connect 40 0 72 0;
#X connect 41 0 42 0;
#X connect 42 0 36 0;
#X connect 43 0 36 0;
#X connect 44 0 36 0;
#X connect 45 0 36 0;
#X connect 46 0 44 0;
#X connect 47 0 71 0;
#X connect 47 1 49 0;
#X connect 48 0 66 0;
#X connect 48 1 49 0;
#X connect 49 0 75 0;
#X connect 50 0 51 0;
#X connect 50 1 52 0;
#X connect 50 2 54 0;
#X connect 51 0 57 0;
#X connect 52 0 58 0;
#X connect 53 0 25 0;
#X connect 54 0 74 0;
#X connect 54 1 55 0;
#X connect 55 0 56 0;
#X connect 56 0 53 2;
#X connect 57 0 59 0;
#X connect 58 0 59 0;
#X connect 59 0 56 1;
#X connect 60 0 53 0;
#X connect 61 0 63 0;
#X connect 62 0 39 1;
#X connect 62 0 65 0;
#X connect 63 1 39 0;
#X connect 64 0 61 0;
#X connect 65 0 64 0;
#X connect 66 0 49 0;
#X connect 67 0 41 1;
#X connect 67 0 43 0;
#X connect 68 0 41 1;
#X connect 68 0 43 0;
#X connect 69 0 45 0;
#X connect 69 0 46 1;
#X connect 70 0 45 0;
#X connect 70 0 46 1;
#X connect 71 0 49 0;
#X connect 72 0 54 0;
#X connect 72 1 50 0;
#X connect 72 2 54 0;
#X connect 73 0 60 0;
#X connect 73 1 53 1;
#X connect 74 0 73 0;
#X connect 75 0 39 2;
#X connect 75 1 76 0;
#X connect 76 0 74 1;
